<svg width="682" height="647" viewBox="0 0 682 647" fill="none" xmlns="http://www.w3.org/2000/svg">
<path d="M149.698 0.745344C121.565 3.41201 95.0314 12.612 72.7647 27.412C61.4314 35.1453 39.0314 57.812 31.0314 69.9453C3.96472 111.012 -6.16862 163.145 3.69805 211.279C11.4314 249.279 28.4981 279.679 60.8981 313.012C91.0314 344.079 113.298 360.479 184.231 404.212C258.098 449.679 282.498 466.745 304.631 488.079L315.831 498.745L309.965 506.079C301.565 516.479 285.165 541.412 280.898 550.079C265.165 581.812 265.298 619.412 281.298 635.145C304.098 657.812 337.165 645.812 366.631 604.079C385.965 576.879 390.765 546.345 380.365 518.612C378.365 513.545 376.498 508.479 376.231 507.412C375.165 504.079 399.031 483.945 467.031 430.745C543.431 371.012 578.098 340.879 606.231 309.545C624.631 289.145 630.898 281.279 641.831 264.745C660.098 236.879 673.165 206.745 679.298 178.079C683.031 160.345 682.498 130.612 677.965 113.812C671.431 89.2787 659.698 68.612 642.898 51.9453C614.365 23.6787 574.898 8.74534 529.031 8.74534C494.098 8.74534 464.898 16.612 436.631 33.5453C412.631 47.9453 385.031 73.812 367.698 98.0787C363.165 104.345 359.298 109.412 359.031 109.412C358.898 109.412 354.365 103.812 349.165 97.012C299.298 32.612 219.698 -5.92132 149.698 0.745344ZM178.765 47.412C210.231 50.4787 235.565 59.5453 263.031 77.812C287.965 94.212 307.698 114.612 324.098 140.745C341.031 167.545 351.698 178.079 362.365 178.079C370.631 178.079 375.298 173.679 384.098 157.412C403.965 120.879 424.898 96.4787 451.698 78.8787C489.298 54.0787 535.565 47.2787 572.765 61.012C592.365 68.212 614.765 86.612 624.898 103.812C651.165 148.479 636.898 204.479 583.431 266.745C566.231 286.612 527.298 324.479 503.031 344.745C491.965 353.945 462.631 377.279 437.831 396.745C412.898 416.212 383.431 439.679 372.231 449.012C361.031 458.212 351.165 466.212 350.365 466.745C349.431 467.279 344.098 463.145 337.298 456.479C309.431 429.545 278.631 407.545 215.698 369.412C151.965 330.745 127.698 313.679 102.631 289.545C58.098 246.612 41.0314 203.545 47.6981 150.212C54.8981 93.5453 96.0981 52.8787 152.098 47.5453C158.098 46.8787 163.298 46.3453 163.698 46.212C164.098 46.212 170.898 46.7453 178.765 47.412ZM337.565 561.145C334.631 570.345 323.298 588.745 320.631 588.745C319.298 588.745 321.298 579.012 324.631 569.412C326.365 564.345 330.231 555.945 333.431 550.879L339.031 541.412L339.431 547.812C339.698 551.412 338.898 557.412 337.565 561.145Z" fill="white"/>
</svg>
